# xmcd
#
# Track frame offsets:
#	150
#	12951
#	23161
#	33345
#	45221
#	58165
#	66706
#	80026
#	94060
#	105371
#	117639
#	129771
#	142677
#	153522
#	164325
#	176785
#	186452
#
# Disc length: 2618 seconds
#
# Revision: 0
# Processed by: cddbd v1.5.2PL0 Copyright (c) Steve Scherf et al.
# Submitted via: audiograbber 1.83.01
#
DISCID=e30a3811
DTITLE=Various Artist - The Rock'N'Roots of the Rolling Stones
DYEAR=2011
DGENRE=Rock and Roll
TTITLE0=Chuck Berry - Carol
TTITLE1=Dale Hawkins - Susie.Q
TTITLE2=Jimmy Reed - Ain't That Loving You Baby
TTITLE3=Barrett Strong - Money (That's What I Want)
TTITLE4=Bo Diddley - Pretty Thing
TTITLE5=Larry Williams - She Said Yeah
TTITLE6=Buster Brown - Fannie Mae
TTITLE7=Slim Harpo - I'm a King Bee
TTITLE8=Bo Diddley - Diddley Daddy
TTITLE9=The Coasters - Poison Ivy
TTITLE10=Chuck Berry - Around And Around
TTITLE11=Hank Snow - I'm Moving On
TTITLE12=The Crickets - Not Fade Away
TTITLE13=Bo Diddley - Mona
TTITLE14=Chuck Berry - You Can't Catch Me
TTITLE15=Bo Diddley - Crackin' Up
TTITLE16=Chuck Berry - Beautiful Delilah
EXTD=
EXTT0=
EXTT1=
EXTT2=
EXTT3=
EXTT4=
EXTT5=
EXTT6=
EXTT7=
EXTT8=
EXTT9=
EXTT10=
EXTT11=
EXTT12=
EXTT13=
EXTT14=
EXTT15=
EXTT16=
PLAYORDER=
